PathFileType	4	(X/Y/Z)	RBDS001\RBDS001runT45.trc
DataRate	CameraRate	NumFrames	NumMarkers	Units	OrigDataRate	OrigDataStartFrame	OrigNumFrames
150.000000	150.000000	4	33	mm	150.000000	562	4500
Frame#	Time	L.ASIS			L.Heel.Bottom			L.Heel.Lateral			L.Heel.Top			L.Iliac.Crest			L.MT1			L.MT5			L.PSIS			L.Shank.Bottom.Lateral			L.Shank.Bottom.Medial			L.Shank.Top.Lateral			L.Shank.Top.Medial			L.Thigh.Bottom.Lateral			L.Thigh.Bottom.Medial			L.Thigh.Top.Lateral			L.Thigh.Top.Medial			R.ASIS			R.ASY			R.Heel.Bottom			R.Heel.Lateral			R.Heel.Top			R.Iliac.Crest			R.MT1			R.MT5			R.PSIS			R.Shank.Bottom.Lateral			R.Shank.Bottom.Medial			R.Shank.Top.Lateral			R.Shank.Top.Medial			R.Thigh.Bottom.Lateral			R.Thigh.Bottom.Medial			R.Thigh.Top.Lateral			R.Thigh.Top.Medial			
		X1	Y1	Z1	X2	Y2	Z2	X3	Y3	Z3	X4	Y4	Z4	X5	Y5	Z5	X6	Y6	Z6	X7	Y7	Z7	X8	Y8	Z8	X9	Y9	Z9	X10	Y10	Z10	X11	Y11	Z11	X12	Y12	Z12	X13	Y13	Z13	X14	Y14	Z14	X15	Y15	Z15	X16	Y16	Z16	X17	Y17	Z17	X18	Y18	Z18	X19	Y19	Z19	X20	Y20	Z20	X21	Y21	Z21	X22	Y22	Z22	X23	Y23	Z23	X24	Y24	Z24	X25	Y25	Z25	X26	Y26	Z26	X27	Y27	Z27	X28	Y28	Z28	X29	Y29	Z29	X30	Y30	Z30	X31	Y31	Z31	X32	Y32	Z32	X33	Y33	Z33	

563	3.746666666666667	2396.228208108138	1041.936461293441	898.8196687063966	1646.49908417965	388.2070131842669	1001.767094670553	1659.541345560404	363.4054079469679	958.4631232810558	1694.162256655934	390.7185297219544	994.6762163558243	2356.018971197881	1122.319584848018	877.5419814577431	1723.031121210672	173.3117295897841	1026.382413759156	1685.055058564627	201.2369945249047	928.5676988188035	2235.194830534252	1107.541742251043	980.6384762332626	1790.12867397541	383.2718760155392	926.5298722877664	1767.077957583141	412.8630761336738	961.808171588261	1845.971122293642	439.8665163243787	911.6102954872511	1825.495953757811	472.2779769836726	948.6798336310562	2127.708827845651	702.585561036083	881.9900890823749	2089.623017855741	729.0422466684644	938.9498418136117	2160.811185546492	806.1014152956411	861.0450442654878	2130.887212779064	829.5870208152799	918.3119442023657	2395.047879291064	1050.353155167933	1100.801181478266	3111679.211547801	5398927.64944194	-8539120.982973963	2488.603148176137	119.5592207813409	1064.863922288159	2518.369836317408	131.3029027994239	1109.595503279575	2503.276921354633	166.4004107756847	1067.41081282546	2339.745060866323	1122.300383519592	1146.499614174843	2710.677705699546	121.7170048949411	1031.029513484455	2686.439144260682	111.0360084326636	1136.084447398206	2238.951347403446	1101.251732593562	1055.062938651296	2563.77803811273	265.5361715065757	1121.477670359917	2522.054404215698	268.2415807130558	1087.058803222779	2556.406656990909	345.0495685248412	1135.293846736761	2516.350263104009	347.3024188852229	1099.371278466978	2526.587560616583	692.2340554774923	1146.482564242071	2475.708707520801	651.7298854142364	1112.056698935314	2449.965309457576	770.9816187422568	1162.738137408834	2402.917115531922	732.3264605174105	1128.275294178132	
564	3.753333333333333	2396.859439545183	1043.838943257849	898.5793561422404	1640.668619714068	411.9293099404509	998.831578875789	1653.051370616674	386.0088059126726	956.1174297588934	1688.50866475929	412.3210487392298	992.3290988656175	2355.962417660755	1124.399895779843	877.5007831689205	1708.05074352807	194.2581888173373	1026.928824072307	1671.91419292723	222.6646611110887	928.3547251544805	2235.106052401073	1108.259080818478	980.1484237269852	1785.793592287399	398.915031655084	925.334483874514	1764.118465723571	430.1678325411171	960.0687809134004	1844.928376992533	452.1037546845097	910.466732695418	1825.862585547032	486.0616583701594	946.9004628462704	2133.198070433041	700.570330687592	880.9045625040629	2094.81603186951	726.4605506406784	937.9079585501603	2164.862216000953	804.4781760121366	859.8688831181649	2134.390516460883	827.5937948084172	917.0249574025904	2394.779758202495	1050.68694925836	1100.120920674922	3132363.254541928	5435628.066675265	-8597162.046545325	2508.174974586092	107.7441974675716	1066.054799672731	2538.868979839737	120.1146694997764	1110.085617540484	2520.518792773556	155.2815605805886	1069.237625546544	2339.947903433131	1122.518891630252	1146.114759629974	2728.860816546111	122.1739316925524	1025.182026686452	2708.633252367858	107.5016777772187	1130.738751775751	2238.754623661257	1101.612314545619	1054.745229394268	2576.625474709301	257.5209298598952	1121.604625112338	2533.755634882989	258.0793883412486	1088.2711378442	2565.0837876171	336.4991856621175	1136.046329941757	2523.975546653237	336.7168208280291	1101.168149461398	2519.103815629295	684.8574865002854	1147.670592527384	2468.216545983584	646.4720772375603	1111.154928076911	2444.180533773738	765.2615110524471	1163.637973077251	2396.907749403329	728.477203484553	1127.618137034175	
565	3.76	2397.339309942603	1045.30866318717	898.2851604394984	1637.312500442044	436.0115314580621	996.0090041070708	1648.710686982596	409.0067463370704	953.8294124176357	1685.10906087895	434.1318371267974	989.8870465568058	2355.512917018545	1125.916831821568	877.3568231516808	1694.614079704836	216.2182938777127	1027.521318517434	1660.16431021734	245.0328243893411	928.2864076293989	2234.825092928532	1108.401595799319	979.5662321060088	1783.181688427997	414.6199707413912	924.0203445730825	1763.050593305924	447.465931634766	958.2740991580009	1845.540766148666	464.1150545502954	909.2538389158663	1828.070104295898	499.5345178813317	945.1387110890369	2139.402145695119	697.414929824797	879.7650428722006	2100.76095723716	722.5688279669783	936.8962736087852	2169.30676896228	801.80974407284	858.7335438681306	2138.32075498116	824.4026056212866	915.8473178812047	2394.437935244342	1050.880204668795	1099.369737149741	3153138.73485466	5472494.517869861	-8655465.497116152	2524.473860573045	97.55077927339534	1067.053720127027	2556.141628288591	110.3086572361486	1110.398299455192	2534.813064568169	145.5533357737486	1070.936052507855	2340.021660060024	1122.596325605934	1145.636846846526	2743.338273409483	122.6418759528837	1019.586560821433	2727.072921049857	104.2347145116114	1125.503440498911	2238.39866735197	1101.560951980322	1054.331800363711	2587.006810306202	250.3659213647114	1121.647522694882	2543.138126235119	248.9524284962579	1089.316557682384	2571.788710657096	328.7417141600452	1136.617225180205	2529.766231495434	327.0815967768547	1102.682552001609	2511.551479771102	677.5986685975729	1148.804055149681	2460.760275499735	641.3909969257408	1110.037848517296	2438.292061521943	759.5177343894065	1164.601926857986	2390.899979095269	724.681102020155	1126.89507387728	
566	3.766666666666667	2397.697046198583	1046.271950921032	897.9563488634199	1636.979163523891	460.2405857414706	993.2857440955732	1646.988166017933	432.2253935084579	951.5446712370054	1684.465967060583	455.8548071054661	987.3055233477229	2354.724531640584	1126.773837958317	877.0780673406292	1682.868797127622	238.987151720694	1027.988499483298	1649.980911227221	268.2529822367116	928.2405664675915	2234.396270427969	1107.908879750522	978.8534367034514	1782.474625262635	430.1641129745727	922.5297140786128	1764.038412858161	464.4733484509936	956.3894705963237	1847.895289087594	475.736385872238	907.9185246857909	1832.196667966108	512.4709723487058	943.3774645588405	2146.157230291824	693.2568596606791	878.647153502163	2107.354570211977	717.5152005957597	936.0158333112391	2174.031321900311	798.207473014206	857.7368820452313	2142.62791066891	820.1248435057364	914.8996737077714	2394.018688142296	1050.929927493629	1098.61131143782	3174005.853982437	5509527.377931183	-8714031.926451715	2537.083951165007	88.85444114555722	1067.607244094452	2569.678932843182	101.7214569802545	1110.346400117657	2545.806935380898	137.1114878930516	1072.263104336539	2339.876285592615	1122.503643778007	1145.085387073801	2753.988967592396	122.7035000539042	1014.445265912792	2741.315919972668	100.8763090739749	1120.555399814078	2237.901035185793	1101.040435230149	1053.780031821162	2594.65174199181	243.9336049207319	1121.534732184762	2549.979311230148	240.7972166852999	1090.044584957043	2576.323365173634	321.7114075790739	1136.928230313067	2533.574626436544	318.4029576031256	1103.756215944393	2504.196725556828	670.6988700096025	1149.779989882381	2453.546943618342	636.5925973227364	1108.816268738587	2432.53714019228	753.9900397934571	1165.494166247073	2385.089559518027	721.0576868137281	1126.144162860688	
